{"title":"Trespass 2011 720p BRRip x264 MP4 Multisubs AAC-CC","uid":9571260,"size":2211922917,"categoryP":"video","categoryS":"hd___movies","magnet":"?xt=urn:btih:4eb144e68860a52b4b308140bd33541e0859beee&amp;dn=Trespass+2011+720p+BRRip+x264+MP4+Multisubs+AAC-CC&amp;tr=udp%3A%2F%2Ftracker.openbittorrent.com%3A80&amp;tr=udp%3A%2F%2Fopen.demonii.com%3A1337&amp;tr=udp%3A%2F%2Ftracker.coppersurfer.tk%3A6969&amp;tr=udp%3A%2F%2Fexodus.desync.com%3A6969","seeders":6,"leechers":5,"uploader":"Caveman44","files":-1,"time":1391636715,"description":" &lt;a href=&quot;http://www.imdb.com/title/tt1674784&quot; rel=&quot;nofollow&quot; target=&quot;_NEW&quot;&gt;http://www.imdb.com/title/tt1674784&lt;/a&gt;\n\nSource: Trespass.2011.720p.BluRay.x264-HDChina Thanks!\n\nSubs: Arabic, Brazilian, Danish, Dutch, English, Farsi-Persian, French, Indonesian, Italian, Malay, Norwegian, Portuguese, Romanian, Serbian, Spanish, Swedish, Turkish, Vietnamese.\n\nSample and Screens included.\n\nGeneral\nComplete name                            : Trespass 2011 720p BRRip x264 MP4 Multisubs AAC-CC.mp4\nFormat                                   : MPEG-4\nFormat profile                           : Base Media\nCodec ID                                 : isom\nFile size                                : 2.03 GiB\nDuration                                 : 1h 30mn\nOverall bit rate mode                    : Variable\nOverall bit rate                         : 3 211 Kbps\nEncoded date                             : UTC 2014-02-02 16:55:45\nTagged date                              : UTC 2014-02-02 16:55:45\nWriting application                      : Yamb 2.1.0.0 \n\nVideo\nID                                       : 1\nFormat                                   : AVC\nFormat/Info                              : Advanced Video Codec\nFormat profile                           : &lt;a class=&quot;__cf_email__&quot; href=&quot;/cdn-cgi/l/email-protection&quot; data-cfemail=&quot;3179585659717d051f00&quot;&gt;[email&amp;#160;protected]&lt;/a&gt;&lt;script cf-hash='f9e31' type=&quot;text/javascript&quot;&gt;\n/* &lt;![CDATA[ */!function(){try{var t=&quot;currentScript&quot;in document?document.currentScript:function(){for(var t=document.getElementsByTagName(&quot;script&quot;),e=t.length;e--;)if(t[e].getAttribute(&quot;cf-hash&quot;))return t[e]}();if(t&amp;&amp;t.previousSibling){var e,r,n,i,c=t.previousSibling,a=c.getAttribute(&quot;data-cfemail&quot;);if(a){for(e=&quot;&quot;,r=parseInt(a.substr(0,2),16),n=2;a.length-n;n+=2)i=parseInt(a.substr(n,2),16)^r,e+=String.fromCharCode(i);e=document.createTextNode(e),c.parentNode.replaceChild(e,c)}}}catch(u){}}();/* ]]&gt; */&lt;/script&gt;\nFormat settings, CABAC                   : Yes\nFormat settings, ReFrames                : 5 frames\nCodec ID                                 : avc1\nCodec ID/Info                            : Advanced Video Coding\nDuration                                 : 1h 30mn\nBit rate                                 : 2 833 Kbps\nMaximum bit rate                         : 13.8 Mbps\nWidth                                    : 1 280 pixels\nHeight                                   : 530 pixels\nDisplay aspect ratio                     : 2.40:1\nFrame rate mode                          : Variable\nFrame rate                               : 23.976 fps\nMinimum frame rate                       : 19.048 fps\nMaximum frame rate                       : 24.390 fps\nColor space                              : YUV\nChroma subsampling                       : 4:2:0\nBit depth                                : 8 bits\nScan type                                : Progressive\nBits/(Pixel*Frame)                       : 0.174\nStream size                              : 1.79 GiB (88%)\nWriting library                          : x264 core 112\nEncoding settings                        : cabac=1 / ref=5 / deblock=1:0:0 / analyse=0x3:0x113 / me=hex / subme=7 / psy=1 / psy_rd=1.00:0.00 / mixed_ref=1 / me_range=16 / chroma_me=1 / trellis=1 / 8x8dct=1 / cqm=0 / deadzone=21,11 / fast_pskip=1 / chroma_qp_offset=-2 / threads=3 / sliced_threads=0 / nr=0 / decimate=1 / interlaced=0 / constrained_intra=0 / bframes=5 / b_pyramid=2 / b_adapt=2 / b_bias=0 / direct=1 / weightb=1 / open_gop=0 / weightp=2 / keyint=240 / keyint_min=23 / scenecut=40 / intra_refresh=0 / rc_lookahead=50 / rc=abr / mbtree=1 / bitrate=2833 / ratetol=1.0 / qcomp=0.60 / qpmin=3 / qpmax=51 / qpstep=4 / ip_ratio=1.40 / aq=1:1.00\nEncoded date                             : UTC 2014-02-03 05:44:22\nTagged date                              : UTC 2014-02-02 16:59:31\nColor primaries                          : BT.709\nTransfer characteristics                 : BT.709\nMatrix coefficients                      : BT.709\n\nAudio\nID                                       : 2\nFormat                                   : AAC\nFormat/Info                              : Advanced Audio Codec\nFormat profile                           : LC\nCodec ID                                 : 40\nDuration                                 : 1h 30mn\nBit rate mode                            : Variable\nBit rate                                 : 384 Kbps\nMaximum bit rate                         : 504 Kbps\nChannel(s)                               : 6 channels\nChannel positions                        : Front: L C R, Side: L R, LFE\nSampling rate                            : 48.0 KHz\nCompression mode                         : Lossy\nDelay relative to video                  : 83ms\nStream size                              : 249 MiB (12%)\nLanguage                                 : English\nEncoded date                             : UTC 2014-02-02 16:58:24\nTagged date                              : UTC 2014-02-02 16:59:31\n\nEnjoy...\n\nRequested by Emiellia76\n\nComing soon: Bridge to Terabithia, Lifeboat, The 39 Steps, High and Low, Hunger Games and more..","torrent":{"xt":"urn:btih:4eb144e68860a52b4b308140bd33541e0859beee","amp;dn":"Trespass+2011+720p+BRRip+x264+MP4+Multisubs+AAC-CC","amp;tr":["udp%3A%2F%2Ftracker.openbittorrent.com%3A80","udp%3A%2F%2Fopen.demonii.com%3A1337","udp%3A%2F%2Ftracker.coppersurfer.tk%3A6969","udp%3A%2F%2Fexodus.desync.com%3A6969"],"infoHash":"4eb144e68860a52b4b308140bd33541e0859beee","infoHashBuffer":{"type":"Buffer","data":[78,177,68,230,136,96,165,43,75,48,129,64,189,51,84,30,8,89,190,238]},"announce":[],"urlList":[]}}